<svg xmlns="http://www.w3.org/2000/svg" viewBox="0 0 78.7 78.73"><title>Asset 5</title><g id="Layer_2" data-name="Layer 2"><g id="Adam_Goarley_Logo" data-name="Adam Goarley Logo"><path d="M39.39,78.71c-5.55,0-11.11.06-16.66,0A22.89,22.89,0,0,1,0,55.68C0,45.11,0,34.55,0,24,0,16.72,2.43,10.56,7.91,5.72A22,22,0,0,1,22.75.07C33.86,0,45,0,56.07.07A22.71,22.71,0,0,1,78.19,18.49a35.61,35.61,0,0,1,.48,6.62q.06,15.24,0,30.49a23,23,0,0,1-15.88,22,24.12,24.12,0,0,1-7.35,1.1c-5.35,0-10.7,0-16,0Zm0-73.45c-5.28,0-10.57,0-15.85,0A19.75,19.75,0,0,0,20,5.54,17.72,17.72,0,0,0,5.23,23.39q0,16.26,0,32.5a17.8,17.8,0,0,0,17.65,17.6h32.8A17.85,17.85,0,0,0,73.47,55.72c0-7.17,0-14.34,0-21.5,0-4.41.17-8.84-.2-13.21A17.55,17.55,0,0,0,55.87,5.26Z"/><path d="M20.33,39.41a19,19,0,1,1,18.89,19A19,19,0,0,1,20.33,39.41Zm5.21-.09A13.81,13.81,0,1,0,39.46,25.57,13.74,13.74,0,0,0,25.54,39.32Z"/><path d="M66.23,17.28a4.86,4.86,0,0,1-9.71.26,4.86,4.86,0,1,1,9.71-.26Z"/></g></g></svg>