<svg xmlns="http://www.w3.org/2000/svg" viewBox="0 0 104.48 104.48"><title>Asset 6</title><g id="Layer_2" data-name="Layer 2"><g id="Adam_Goarley_Logo" data-name="Adam Goarley Logo"><path d="M104.48,9V95.5c-.08.25-.16.51-.22.77A10.56,10.56,0,0,1,94,104.47q-41.82,0-83.64,0A10.45,10.45,0,0,1,0,94.09c0-3.61,0-7.21,0-10.81Q0,47,0,10.66A10.39,10.39,0,0,1,3.87,2.38,12.36,12.36,0,0,1,9,0H95.5A3,3,0,0,0,96,.18a10.51,10.51,0,0,1,6.08,3.62A12.42,12.42,0,0,1,104.48,9ZM57.43,88.73V87.28q0-12,0-24.07a24.27,24.27,0,0,1,.13-3A7.65,7.65,0,0,1,62.27,54a7.12,7.12,0,0,1,7.59.9,8.23,8.23,0,0,1,3.32,7.08q0,12.75,0,25.5v1.28H88.78V59a16.45,16.45,0,0,0-1.28-6.55c-3-6.8-8.09-10.87-15.49-11.58-5.69-.55-10.26,2-13.87,6.31-.18.21-.37.4-.76.83V41.88H41.88V88.73ZM15.77,41.87V88.72H31.25V41.87Zm17.1-18.31a9.32,9.32,0,0,0-9.34-9.42,9.18,9.18,0,0,0-9.37,9.36,9.2,9.2,0,0,0,9.27,9.36A9.33,9.33,0,0,0,32.87,23.56Z"/></g></g></svg>